<svg id="Group_705" data-name="Group 705" xmlns="http://www.w3.org/2000/svg" xmlns:xlink="http://www.w3.org/1999/xlink" width="39.695" height="39.722" viewBox="0 0 39.695 39.722">
  <defs>
    <clipPath id="clip-path">
      <rect id="Rectangle_254" data-name="Rectangle 254" width="39.695" height="39.722" fill="#fff"/>
    </clipPath>
  </defs>
  <g id="Group_704" data-name="Group 704" clip-path="url(#clip-path)">
    <path id="Path_5181" data-name="Path 5181" d="M37.366,0c.107.149.281.078.42.117A2.572,2.572,0,0,1,39.1,4.243c-.123.149-.262.285-.4.422q-7.438,7.441-14.878,14.88c-.109.109-.236.2-.368.312,1.285,1.282,2.529,2.521,3.771,3.763q5.809,5.809,11.616,11.62a2.571,2.571,0,0,1-3.384,3.872c-.128-.108-.245-.229-.364-.348q-7.453-7.453-14.9-14.913c-.258-.259-.385-.307-.676-.016C14.53,28.843,9.523,33.829,4.543,38.841a2.718,2.718,0,0,1-3.077.63A2.536,2.536,0,0,1,.148,38.02c-.043-.114-.022-.26-.148-.338V36.6a6.38,6.38,0,0,1,1.831-2.333q7.036-7.042,14.082-14.075c.24-.239.263-.354.008-.608Q8.938,12.623,1.977,5.642A7.014,7.014,0,0,1,0,3.179V2.016c.134-.051.115-.187.154-.287A2.61,2.61,0,0,1,1.945.106c.1-.029.242.036.3-.106h.62A4.682,4.682,0,0,1,5.253,1.645Q12.4,8.8,19.553,15.962c.242.243.353.235.59,0Q27.613,8.465,35.1.984A3.085,3.085,0,0,1,36.525.1c.059-.015.132-.014.143-.1Z" fill="#fff"/>
  </g>
</svg>
