<svg id="katman_1" data-name="katman 1" xmlns="http://www.w3.org/2000/svg" width="40" height="40" viewBox="0 0 40 40">
  <g id="Group_703" data-name="Group 703">
    <path id="Path_5177" data-name="Path 5177" d="M20,0A20,20,0,1,0,40,20,19.99,19.99,0,0,0,20,0m6.32,21.04a64.684,64.684,0,0,1-6.347,9.549c-6.484-8.482-7.114-11.327-7.114-11.327a7.271,7.271,0,0,1-.383-2.326,7.51,7.51,0,1,1,13.789,4.1" fill="#1a428a"/>
    <path id="Path_5178" data-name="Path 5178" d="M10.3,4.48a4.761,4.761,0,1,0,4.761,4.761A4.764,4.764,0,0,0,10.3,4.48" transform="translate(9.617 7.777)" fill="#1a428a"/>
  </g>
</svg>
