<svg id="katman_1" data-name="katman 1" xmlns="http://www.w3.org/2000/svg" width="40" height="40" viewBox="0 0 40 40">
  <path id="Path_5179" data-name="Path 5179" d="M20,0A20,20,0,1,0,40,20,19.99,19.99,0,0,0,20,0M10.014,17.209a6.288,6.288,0,0,0,1.122.958c1.587,1.067,2.873,1.943,3.858,2.654L10.014,25.8V17.209ZM28.208,27.852H11.819a1.783,1.783,0,0,1-1.176-.438l5.663-5.663c.137.109.274.192.383.274.438.3.766.547,1.04.739a6.488,6.488,0,0,0,1.067.52,3.052,3.052,0,0,0,1.231.274h0a3.591,3.591,0,0,0,1.231-.274,9.836,9.836,0,0,0,1.067-.52c.246-.192.6-.41,1.04-.739a1.942,1.942,0,0,1,.383-.274l5.663,5.663a1.654,1.654,0,0,1-1.176.438m1.778-2.025-4.979-4.98c1.067-.739,2.353-1.614,3.858-2.654a7.9,7.9,0,0,0,1.122-.958ZM29.466,15.65A5.9,5.9,0,0,1,28.1,17.018c-1.806,1.259-3.146,2.189-4.077,2.845-.52.356-.876.6-1.122.766a2.124,2.124,0,0,0-.192.109c-.082.055-.164.137-.3.219-.246.164-.438.328-.6.438s-.356.219-.575.356a2.342,2.342,0,0,1-.657.3,2.044,2.044,0,0,1-.547.082h0a1.334,1.334,0,0,1-.547-.082,4.314,4.314,0,0,1-.629-.3c-.219-.137-.438-.246-.6-.356s-.356-.246-.6-.438c-.109-.082-.219-.164-.3-.219s-.137-.109-.164-.109c-.328-.219-.684-.465-1.122-.793-.52-.356-1.094-.766-1.806-1.231-1.259-.876-2.025-1.423-2.3-1.587a4.781,4.781,0,0,1-1.286-1.286,2.6,2.6,0,0,1-.629-1.532,2.3,2.3,0,0,1,.465-1.45,1.57,1.57,0,0,1,1.313-.575H28.208a1.694,1.694,0,0,1,1.259.52,1.72,1.72,0,0,1,.547,1.259,2.961,2.961,0,0,1-.547,1.669" fill="#1a428a"/>
</svg>
