<svg id="katman_1" data-name="katman 1" xmlns="http://www.w3.org/2000/svg" width="40" height="40" viewBox="0 0 40 40">
  <path id="Path_5180" data-name="Path 5180" d="M20,0A20,20,0,1,0,40,20,19.99,19.99,0,0,0,20,0m8.536,27.25-.793.766h0a4.954,4.954,0,0,1-1.122.629,5.937,5.937,0,0,1-1.149.3c-.164,0-4.378.41-9.549-4.788-3.748-3.748-5.144-6.512-4.788-9.549a4.659,4.659,0,0,1,.274-1.149,4.8,4.8,0,0,1,.657-1.149h0l.793-.821a1.4,1.4,0,0,1,2.025-.027l2.763,2.763a1.454,1.454,0,0,1-.027,2.025l-.465.465-.93.93a2.439,2.439,0,0,1,.137.274A14.081,14.081,0,0,0,18.8,21.286a14.274,14.274,0,0,0,3.338,2.435,2.407,2.407,0,0,1,.274.164l1.4-1.4a1.4,1.4,0,0,1,2.025-.027l2.763,2.763a1.462,1.462,0,0,1-.027,2.052" fill="#1a428a"/>
</svg>
